name rise42.5664peak47.7979fall81.9185.mot
datacolumns 19
datarows 24
range 18.45326700000000 18.49159700000000
endheader
time	ground_force1_vx	ground_force1_vy	ground_force1_vz	ground_force1_px	ground_force1_py	ground_force1_pz	ground_force2_vx	ground_force2_vy	ground_force2_vz	ground_force2_px	ground_force2_py	ground_force2_pz	ground_torque1_x	ground_torque1_y	ground_torque1_z	ground_torque2_x	ground_torque2_y	ground_torque2_z	
18.45326700000000	53.69674400000000	798.36222199999997	49.06688800000000	0.30400200000000	0.00000000000000	0.10490000000000	0.00000000000000	0.00000000000000	0.00000000000000	0.00000000000000	0.00000000000000	0.00000000000000	0.00000000000000	17.74654000000000	0.00000000000000	0.00000000000000	0.00000000000000	0.00000000000000	
18.45493300000000	52.89508500000000	798.56793700000003	49.03939800000000	0.30293300000000	0.00000000000000	0.10492500000000	0.00000000000000	0.00000000000000	0.00000000000000	0.00000000000000	0.00000000000000	0.00000000000000	0.00000000000000	17.74698200000000	0.00000000000000	0.00000000000000	0.00000000000000	0.00000000000000	
18.45659600000000	52.10116000000000	798.62384799999995	49.00735100000000	0.30188100000000	0.00000000000000	0.10494900000000	0.00000000000000	0.00000000000000	0.00000000000000	0.00000000000000	0.00000000000000	0.00000000000000	0.00000000000000	17.74513300000000	0.00000000000000	0.00000000000000	0.00000000000000	0.00000000000000	
18.45826400000000	51.31559500000000	798.53321800000003	48.97073400000000	0.30084600000000	0.00000000000000	0.10497500000000	0.00000000000000	0.00000000000000	0.00000000000000	0.00000000000000	0.00000000000000	0.00000000000000	0.00000000000000	17.74093200000000	0.00000000000000	0.00000000000000	0.00000000000000	0.00000000000000	
18.45992800000000	50.53893300000000	798.29951900000003	48.92950000000000	0.29982700000000	0.00000000000000	0.10500000000000	0.00000000000000	0.00000000000000	0.00000000000000	0.00000000000000	0.00000000000000	0.00000000000000	0.00000000000000	17.73430200000000	0.00000000000000	0.00000000000000	0.00000000000000	0.00000000000000	
18.46159900000000	49.77164200000000	797.92642999999998	48.88357000000000	0.29882300000000	0.00000000000000	0.10502600000000	0.00000000000000	0.00000000000000	0.00000000000000	0.00000000000000	0.00000000000000	0.00000000000000	0.00000000000000	17.72515100000000	0.00000000000000	0.00000000000000	0.00000000000000	0.00000000000000	
18.46325800000000	49.01411300000000	797.41782799999999	48.83284200000000	0.29783300000000	0.00000000000000	0.10505200000000	0.00000000000000	0.00000000000000	0.00000000000000	0.00000000000000	0.00000000000000	0.00000000000000	0.00000000000000	17.71338000000000	0.00000000000000	0.00000000000000	0.00000000000000	0.00000000000000	
18.46492600000000	48.26666500000000	796.77778300000000	48.77718800000000	0.29685400000000	0.00000000000000	0.10507800000000	0.00000000000000	0.00000000000000	0.00000000000000	0.00000000000000	0.00000000000000	0.00000000000000	0.00000000000000	17.69887900000000	0.00000000000000	0.00000000000000	0.00000000000000	0.00000000000000	
18.46659100000000	47.52954700000000	796.01055299999996	48.71646300000000	0.29588700000000	0.00000000000000	0.10510400000000	0.00000000000000	0.00000000000000	0.00000000000000	0.00000000000000	0.00000000000000	0.00000000000000	0.00000000000000	17.68153400000000	0.00000000000000	0.00000000000000	0.00000000000000	0.00000000000000	
18.46825900000000	46.80294500000000	795.12057100000004	48.65050700000000	0.29493000000000	0.00000000000000	0.10513100000000	0.00000000000000	0.00000000000000	0.00000000000000	0.00000000000000	0.00000000000000	0.00000000000000	0.00000000000000	17.66122400000000	0.00000000000000	0.00000000000000	0.00000000000000	0.00000000000000	
18.46992900000000	46.08698300000000	794.11244199999999	48.57915000000000	0.29398000000000	0.00000000000000	0.10515800000000	0.00000000000000	0.00000000000000	0.00000000000000	0.00000000000000	0.00000000000000	0.00000000000000	0.00000000000000	17.63782800000000	0.00000000000000	0.00000000000000	0.00000000000000	0.00000000000000	
18.47159300000000	45.38172700000000	792.99092900000005	48.50221400000000	0.29303800000000	0.00000000000000	0.10518500000000	0.00000000000000	0.00000000000000	0.00000000000000	0.00000000000000	0.00000000000000	0.00000000000000	0.00000000000000	17.61122700000000	0.00000000000000	0.00000000000000	0.00000000000000	0.00000000000000	
18.47326400000000	44.68718900000000	791.76094399999999	48.41952000000000	0.29210200000000	0.00000000000000	0.10521100000000	0.00000000000000	0.00000000000000	0.00000000000000	0.00000000000000	0.00000000000000	0.00000000000000	0.00000000000000	17.58130200000000	0.00000000000000	0.00000000000000	0.00000000000000	0.00000000000000	
18.47492900000000	44.00333100000000	790.42753600000003	48.33089000000000	0.29117000000000	0.00000000000000	0.10523800000000	0.00000000000000	0.00000000000000	0.00000000000000	0.00000000000000	0.00000000000000	0.00000000000000	0.00000000000000	17.54793900000000	0.00000000000000	0.00000000000000	0.00000000000000	0.00000000000000	
18.47659800000000	43.33007300000000	788.99588000000006	48.23615000000000	0.29024000000000	0.00000000000000	0.10526500000000	0.00000000000000	0.00000000000000	0.00000000000000	0.00000000000000	0.00000000000000	0.00000000000000	0.00000000000000	17.51103100000000	0.00000000000000	0.00000000000000	0.00000000000000	0.00000000000000	
18.47825800000000	42.66728900000000	787.47126500000002	48.13513500000000	0.28931200000000	0.00000000000000	0.10529200000000	0.00000000000000	0.00000000000000	0.00000000000000	0.00000000000000	0.00000000000000	0.00000000000000	0.00000000000000	17.47047900000000	0.00000000000000	0.00000000000000	0.00000000000000	0.00000000000000	
18.47992800000000	42.01481900000000	785.85907999999995	48.02769100000000	0.28838300000000	0.00000000000000	0.10531900000000	0.00000000000000	0.00000000000000	0.00000000000000	0.00000000000000	0.00000000000000	0.00000000000000	0.00000000000000	17.42619200000000	0.00000000000000	0.00000000000000	0.00000000000000	0.00000000000000	
18.48159400000000	41.37247100000000	784.16479900000002	47.91368100000000	0.28745300000000	0.00000000000000	0.10534600000000	0.00000000000000	0.00000000000000	0.00000000000000	0.00000000000000	0.00000000000000	0.00000000000000	0.00000000000000	17.37809400000000	0.00000000000000	0.00000000000000	0.00000000000000	0.00000000000000	
18.48325700000000	40.74002200000000	782.39397099999996	47.79298400000000	0.28652000000000	0.00000000000000	0.10537300000000	0.00000000000000	0.00000000000000	0.00000000000000	0.00000000000000	0.00000000000000	0.00000000000000	0.00000000000000	17.32611900000000	0.00000000000000	0.00000000000000	0.00000000000000	0.00000000000000	
18.48493000000000	40.11722500000000	780.55220499999996	47.66550200000000	0.28558300000000	0.00000000000000	0.10539900000000	0.00000000000000	0.00000000000000	0.00000000000000	0.00000000000000	0.00000000000000	0.00000000000000	0.00000000000000	17.27021600000000	0.00000000000000	0.00000000000000	0.00000000000000	0.00000000000000	
18.48660000000000	39.50381300000000	778.64515100000006	47.53115800000000	0.28464100000000	0.00000000000000	0.10542500000000	0.00000000000000	0.00000000000000	0.00000000000000	0.00000000000000	0.00000000000000	0.00000000000000	0.00000000000000	17.21035000000000	0.00000000000000	0.00000000000000	0.00000000000000	0.00000000000000	
18.48825900000000	38.89950100000000	776.67849300000000	47.38990100000000	0.28369200000000	0.00000000000000	0.10545100000000	0.00000000000000	0.00000000000000	0.00000000000000	0.00000000000000	0.00000000000000	0.00000000000000	0.00000000000000	17.14650200000000	0.00000000000000	0.00000000000000	0.00000000000000	0.00000000000000	
18.48992500000000	38.30399100000000	774.65792999999996	47.24170900000000	0.28273500000000	0.00000000000000	0.10547700000000	0.00000000000000	0.00000000000000	0.00000000000000	0.00000000000000	0.00000000000000	0.00000000000000	0.00000000000000	17.07867000000000	0.00000000000000	0.00000000000000	0.00000000000000	0.00000000000000	
18.49159700000000	37.71697700000000	772.58916199999999	47.08658800000000	0.28176900000000	0.00000000000000	0.10550300000000	0.00000000000000	0.00000000000000	0.00000000000000	0.00000000000000	0.00000000000000	0.00000000000000	0.00000000000000	17.00687100000000	0.00000000000000	0.00000000000000	0.00000000000000	0.00000000000000	
